<svg width="453" height="453" viewBox="0 0 453 453" fill="#fff" xmlns="http://www.w3.org/2000/svg">
<g id="Vector">
<path d="M310.22 309.648L304.424 308.095L369.129 66.6136L374.925 68.1665L310.22 309.648Z" style="fill-opacity:1;"/>
<path d="M141.78 142.352L147.576 143.905L82.8708 385.386L77.0752 383.833L141.78 142.352Z" style="fill-opacity:1;"/>
<path d="M340.551 194.887L336.309 199.13L159.532 22.3532L163.775 18.1106L340.551 194.887Z" style="fill-opacity:1;"/>
<path d="M111.449 257.113L115.691 252.87L292.468 429.647L288.225 433.889L111.449 257.113Z" style="fill-opacity:1;"/>
<path d="M256.331 111.239L257.884 117.035L16.4027 181.74L14.8498 175.944L256.331 111.239Z" style="fill-opacity:1;"/>
<path d="M195.669 340.761L194.116 334.965L435.597 270.26L437.15 276.056L195.669 340.761Z" style="fill-opacity:1;"/>
<path d="M190.789 261.228L196.584 259.675L133.174 23.0232L127.378 24.5761L190.789 261.228Z" style="fill-opacity:1;"/>
<path d="M262.211 191.772L256.416 193.325L319.826 429.977L325.622 428.424L262.211 191.772Z" style="fill-opacity:1;"/>
<path d="M178.569 212.937L182.812 217.18L356.053 43.9387L351.81 39.696L178.569 212.937Z" style="fill-opacity:1;"/>
<path d="M274.431 240.063L270.188 235.82L96.947 409.061L101.19 413.304L274.431 240.063Z" style="fill-opacity:1;"/>
<path d="M214.28 178.209L212.727 184.005L449.379 247.415L450.932 241.62L214.28 178.209Z" style="fill-opacity:1;"/>
<path d="M238.72 274.791L240.273 268.995L3.62073 205.584L2.06782 211.38L238.72 274.791Z" style="fill-opacity:1;"/>
<path d="M165.222 428.051H286.222V452.051H165.222V428.051Z" style="fill-opacity:1;"/>
<path d="M287.222 24.0514H166.222V0.0513806H287.222V24.0514Z" style="fill-opacity:1;"/>
<path d="M380.049 81.6143L275.26 21.1143L287.26 0.329649L392.049 60.8297L380.049 81.6143Z" style="fill-opacity:1;"/>
<path d="M72.3942 370.489L177.183 430.989L165.183 451.773L60.3942 391.273L72.3942 370.489Z" style="fill-opacity:1;"/>
<path d="M20.7846 274.224L81.2846 379.013L60.5 391.013L0 286.224L20.7846 274.224Z" style="fill-opacity:1;"/>
<path d="M431.659 177.879L371.159 73.0899L391.943 61.0899L452.443 165.879L431.659 177.879Z" style="fill-opacity:1;"/>
<path d="M428.222 287.051V166.051H452.222V287.051H428.222Z" style="fill-opacity:1;"/>
<path d="M24.2217 165.051L24.2217 286.051H0.221736L0.221734 165.051H24.2217Z" style="fill-opacity:1;"/>
<path d="M81.7846 72.2239L21.2846 177.013L0.499977 165.013L61 60.2239L81.7846 72.2239Z" style="fill-opacity:1;"/>
<path d="M370.659 379.879L431.159 275.09L451.943 287.09L391.443 391.879L370.659 379.879Z" style="fill-opacity:1;"/>
<path d="M274.394 431.489L379.183 370.989L391.183 391.773L286.394 452.273L274.394 431.489Z" style="fill-opacity:1;"/>
<path d="M178.049 20.6142L73.2602 81.1143L61.3586 60.5L166.148 0L178.049 20.6142Z" style="fill-opacity:1;"/>
</g>
</svg>
